<svg width="960" height="1120" viewBox="0 0 960 1120" fill="none" xmlns="http://www.w3.org/2000/svg">
  <rect width="960" height="1120" rx="64" fill="#F4E4D2"/>
  <rect x="84" y="84" width="792" height="952" rx="52" fill="#E7C9AC"/>
  <ellipse cx="486" cy="250" rx="152" ry="150" fill="#EEDACA"/>
  <path d="M339 357C339 298.458 386.458 251 445 251H527C585.542 251 633 298.458 633 357V403L713 468V885C713 911.51 691.51 933 665 933H307C280.49 933 259 911.51 259 885V468L339 403V357Z" fill="#F7F0E7"/>
  <path d="M339 404L259 468H335L411 406L339 404Z" fill="#EAD8C8"/>
  <path d="M633 404L713 468H637L561 406L633 404Z" fill="#EAD8C8"/>
  <path d="M447 308H525" stroke="#C9AA8E" stroke-width="8" stroke-linecap="round"/>
  <path d="M486 308V902" stroke="#E5CDB9" stroke-width="6"/>
  <circle cx="486" cy="428" r="9" fill="#CBAE93"/>
  <circle cx="486" cy="510" r="9" fill="#CBAE93"/>
  <circle cx="486" cy="592" r="9" fill="#CBAE93"/>
  <circle cx="486" cy="674" r="9" fill="#CBAE93"/>
  <circle cx="486" cy="756" r="9" fill="#CBAE93"/>
  <path d="M379 449C404.5 463.667 456.1 493.8 459.5 496C463.75 498.75 485 520 485 520C485 520 506.25 498.75 510.5 496C513.9 493.8 565.5 463.667 591 449" stroke="#E7C9AC" stroke-width="7" stroke-linecap="round"/>
  <rect x="312" y="943" width="347" height="34" rx="17" fill="#DDBB9B"/>
  <text x="110" y="1000" fill="#7B5A43" font-family="Arial, sans-serif" font-size="40" font-weight="700" letter-spacing="8">SALT</text>
</svg>
